<?xml version="1.0" standalone="no"?>
<!DOCTYPE svg PUBLIC "-//W3C//DTD SVG 20010904//EN"
 "http://www.w3.org/TR/2001/REC-SVG-20010904/DTD/svg10.dtd">
<svg version="1.0" xmlns="http://www.w3.org/2000/svg"
 width="900.000000pt" height="1127.000000pt" viewBox="0 0 900.000000 1127.000000"
 preserveAspectRatio="xMidYMid meet">

<g transform="translate(0.000000,1127.000000) scale(0.100000,-0.100000)"
fill="#000000" stroke="none">
<path d="M2328 8871 c-48 -30 -78 -73 -78 -111 0 -12 -9 -24 -23 -29 -36 -14
-74 -66 -82 -110 -17 -104 69 -365 192 -579 l66 -114 -34 -27 c-160 -124 -321
-314 -384 -455 -36 -77 -65 -199 -76 -316 -13 -135 -22 -181 -51 -255 -20 -52
-23 -78 -23 -190 0 -128 1 -132 34 -200 38 -77 135 -182 189 -204 18 -7 32
-17 32 -22 0 -15 -287 -10 -420 6 -217 28 -305 44 -386 69 -96 30 -79 12 41
-44 201 -94 428 -160 550 -160 39 0 108 -3 154 -7 81 -6 83 -7 55 -21 -80 -40
-185 -179 -244 -322 -96 -232 -217 -794 -250 -1160 -14 -162 -13 -165 25 -67
46 117 131 282 203 392 60 93 181 249 187 243 2 -2 -3 -46 -11 -98 -8 -52 -19
-191 -24 -309 -11 -234 -23 -356 -45 -442 -21 -82 -102 -315 -126 -361 -11
-22 -19 -42 -16 -44 11 -11 285 313 372 440 l40 59 7 -64 c4 -35 12 -102 18
-149 6 -47 11 -210 12 -362 1 -153 5 -274 9 -270 3 4 33 80 65 169 33 90 61
163 64 163 3 0 13 -19 22 -43 10 -23 38 -67 63 -97 24 -30 82 -105 128 -166
107 -140 235 -268 333 -333 42 -28 80 -52 83 -53 3 -2 51 -59 106 -128 122
-154 256 -293 336 -351 34 -24 112 -82 174 -129 191 -144 318 -200 452 -200
38 0 65 -5 69 -12 13 -21 7 -138 -11 -215 l-17 -73 -85 0 c-96 0 -125 -12
-163 -67 -13 -19 -31 -58 -41 -86 -16 -48 -21 -53 -61 -65 -24 -7 -74 -17
-113 -23 -51 -8 -75 -18 -90 -34 -15 -17 -56 -31 -176 -59 -86 -21 -165 -43
-174 -50 -17 -12 -18 -24 -7 -192 7 -98 18 -217 26 -264 8 -47 27 -202 41
-345 29 -287 86 -650 110 -695 20 -38 43 -50 72 -39 13 5 70 38 126 73 103 64
207 116 417 208 251 109 505 247 667 360 194 135 317 233 366 292 20 25 90 89
154 143 188 158 312 272 583 538 140 138 288 281 329 319 127 118 338 244 486
292 64 20 68 23 42 29 -16 4 -79 5 -140 1 -97 -6 -217 -8 -474 -6 -55 0 -65 3
-104 36 -35 29 -48 35 -73 30 -29 -6 -37 0 -117 85 l-86 91 -44 -22 c-24 -12
-46 -24 -47 -25 -2 -2 22 -46 53 -99 31 -52 55 -100 53 -105 -8 -24 -464 -473
-579 -570 -69 -58 -242 -209 -385 -335 -437 -386 -1013 -878 -1022 -872 -5 3
-15 118 -22 256 l-13 251 105 107 c57 59 115 122 127 140 26 38 88 72 130 72
24 0 59 28 197 158 192 180 217 213 481 637 180 288 512 798 585 899 27 37 46
67 40 65 -5 -2 -99 -86 -209 -187 -232 -212 -343 -303 -505 -412 -157 -106
-246 -148 -342 -160 -69 -9 -96 -8 -164 6 -26 5 -62 58 -62 91 0 27 28 43 170
95 l105 38 -60 -5 c-33 -4 -139 -7 -236 -8 -154 -1 -179 1 -203 16 -16 11 -26
25 -24 35 3 15 27 18 213 23 189 5 223 9 348 38 140 33 225 59 195 60 -9 1
-89 -15 -177 -34 -88 -19 -194 -38 -236 -42 l-74 -6 -11 28 c-6 16 -9 65 -8
109 l3 80 165 42 c91 23 172 45 181 49 17 6 26 -1 54 -40 12 -18 13 -14 9 35
-2 30 -8 73 -13 95 l-9 40 -1 -36 c-2 -64 -22 -77 -166 -111 -171 -39 -215
-44 -225 -28 -12 19 -33 177 -27 194 3 8 31 22 63 31 32 9 134 50 227 91 216
96 369 137 512 137 87 1 107 -2 150 -23 48 -24 50 -27 53 -71 4 -56 -20 -91
-76 -107 -64 -19 -71 -17 -78 29 l-7 41 -19 -44 c-13 -31 -35 -54 -76 -83 -45
-32 -53 -40 -37 -43 11 -2 30 -13 43 -25 26 -24 30 -12 5 15 -10 11 -13 22 -7
27 18 17 78 31 130 31 45 0 56 -4 73 -26 26 -33 26 -45 1 -94 -21 -41 -25 -60
-12 -60 15 1 102 147 122 204 25 72 25 90 1 143 -38 84 -184 133 -334 113
-143 -19 -355 -79 -506 -142 -188 -78 -256 -97 -403 -112 -73 -8 -75 3 -12 85
48 62 51 88 12 90 -41 2 -53 -2 -83 -32 -27 -25 -39 -29 -86 -29 -37 0 -69 7
-99 22 -52 26 -49 6 -30 228 6 80 10 191 8 247 -3 100 -5 104 -52 195 -27 51
-59 112 -70 135 -26 52 -33 54 -28 7 l5 -37 -49 5 c-50 5 -425 121 -524 162
-66 28 -79 47 -149 231 -86 225 -141 481 -141 646 l0 74 51 -90 c73 -131 229
-362 319 -473 79 -97 180 -203 180 -188 0 4 -24 49 -54 99 -130 222 -234 459
-275 630 -89 365 -102 637 -37 792 l14 33 104 -38 c172 -63 510 -200 562 -228
58 -32 121 -102 251 -282 243 -335 527 -669 736 -865 41 -38 97 -100 126 -137
l52 -67 -102 -59 c-56 -33 -178 -99 -270 -147 l-168 -87 -46 11 c-53 14 -63 9
-38 -20 20 -22 20 -23 -28 -50 -24 -14 -148 52 -187 99 -16 20 -32 33 -35 30
-4 -3 -1 -25 5 -49 22 -79 86 -119 195 -119 29 0 60 -7 72 -15 27 -19 21 -39
-31 -117 -20 -29 -34 -54 -32 -56 3 -2 22 6 43 17 101 55 125 62 149 46 28
-18 61 -20 66 -3 2 6 0 28 -6 48 -25 95 58 217 208 305 52 30 97 55 100 55 3
0 6 -25 6 -55 0 -30 5 -66 12 -80 24 -53 108 -71 162 -36 41 27 55 57 56 119
0 56 -1 58 -69 110 l-24 18 48 32 c41 27 58 32 110 32 79 0 166 -25 172 -50 3
-10 10 -17 17 -14 20 8 95 -65 121 -117 35 -69 33 -128 -10 -244 -12 -33 40
33 83 105 53 88 82 156 91 210 l7 45 46 -85 c25 -47 54 -107 64 -135 16 -43
19 -46 22 -24 2 14 -8 104 -22 199 -15 96 -26 179 -25 184 2 32 99 -282 100
-324 0 -16 6 -6 17 30 l18 55 21 -35 c12 -19 40 -73 63 -120 40 -81 41 -88 36
-155 -3 -38 -24 -158 -45 -265 -22 -107 -39 -196 -38 -197 1 -1 33 69 71 155
113 259 222 475 255 506 23 22 35 27 55 22 44 -11 35 -59 -30 -162 -90 -142
-108 -186 -101 -256 5 -52 3 -62 -20 -89 -14 -16 -53 -49 -87 -71 -60 -41 -76
-55 -76 -70 0 -20 50 -2 180 63 108 54 146 78 161 102 36 58 4 141 -61 163
-41 14 -46 25 -21 48 13 12 39 18 89 19 63 2 74 5 101 31 38 36 49 19 26 -38
-24 -58 -11 -54 31 8 36 55 48 64 58 48 10 -16 -60 -146 -125 -231 -146 -195
-277 -299 -444 -357 -44 -15 -82 -29 -85 -32 -3 -2 9 -15 25 -29 17 -14 45
-38 62 -54 18 -16 35 -29 38 -29 3 0 5 22 5 49 0 44 2 49 25 54 34 6 169 -2
219 -13 22 -5 42 -7 44 -5 2 2 -14 40 -37 83 -47 93 -43 99 49 75 60 -15 113
-44 185 -99 26 -19 49 -33 52 -30 3 2 -2 50 -11 106 -20 129 -21 125 12 102
82 -57 333 -192 526 -282 196 -91 308 -123 636 -182 169 -30 340 46 331 147
-1 19 3 51 9 71 7 19 9 38 6 41 -3 3 -29 -12 -58 -35 -63 -48 -108 -68 -108
-48 0 7 25 30 56 51 64 44 89 77 80 102 -6 15 -11 12 -33 -16 -25 -32 -89 -68
-100 -57 -12 11 8 36 39 49 44 19 70 50 66 79 -3 22 -5 21 -49 -20 -66 -61
-81 -52 -20 12 28 30 51 59 51 64 0 24 -17 18 -56 -18 -24 -22 -48 -40 -54
-40 -24 0 -6 31 40 70 28 23 50 48 50 55 0 31 -24 25 -65 -15 -64 -62 -64 -31
0 35 30 32 55 62 55 66 0 20 -20 7 -59 -37 -34 -39 -43 -45 -56 -34 -24 20
-18 34 30 68 25 17 45 36 45 42 0 16 -10 12 -47 -20 -40 -36 -49 -37 -59 -8
-5 18 2 29 40 61 25 21 46 46 46 54 0 10 -17 0 -46 -27 -44 -41 -48 -42 -60
-25 -19 26 -18 32 9 46 31 17 87 63 87 72 0 16 -24 5 -63 -28 -22 -19 -44 -35
-47 -35 -4 0 -12 10 -17 23 -9 19 -6 26 21 50 22 20 25 27 11 22 -50 -18 -54
-17 -66 9 -10 20 -10 29 -1 38 7 7 12 18 12 26 0 12 -3 12 -16 1 -13 -10 -17
-10 -25 2 -13 20 -11 29 6 29 8 0 15 7 15 16 0 11 -6 13 -19 9 -14 -4 -23 0
-31 15 -7 13 -7 20 0 20 5 0 10 7 10 15 0 8 -8 15 -17 15 -23 0 -97 168 -114
255 -12 63 -70 183 -144 300 -45 70 -54 95 -35 95 6 0 10 5 10 10 0 6 -9 10
-19 10 -25 0 -37 18 -22 33 17 17 13 30 -8 24 -28 -7 -36 22 -11 40 28 20 25
37 -4 29 -25 -6 -45 17 -26 29 16 10 12 38 -5 31 -8 -3 -15 0 -15 7 0 19 -130
233 -210 346 -40 58 -105 137 -143 178 -46 48 -65 74 -56 78 8 2 52 11 99 19
l85 15 27 -32 c111 -135 176 -224 215 -297 26 -47 64 -110 84 -141 21 -31 54
-96 74 -145 43 -107 175 -356 192 -362 13 -4 141 164 253 333 40 61 106 178
147 261 178 366 238 689 213 1139 -7 110 -13 202 -15 204 -2 1 -7 -14 -10 -35
-11 -68 -26 -86 -20 -24 4 30 10 59 16 64 11 12 12 66 1 83 -5 8 -25 -59 -51
-165 -23 -97 -48 -188 -56 -202 -49 -87 -66 -124 -75 -166 -6 -26 -38 -90 -70
-142 -33 -52 -60 -101 -60 -109 0 -27 21 -11 56 43 20 31 38 53 41 50 3 -3 -8
-27 -25 -53 -32 -49 -62 -114 -62 -132 0 -6 7 -8 15 -5 17 7 21 -11 4 -22 -6
-3 -9 -23 -7 -43 4 -28 -2 -47 -28 -86 -45 -69 -101 -131 -109 -123 -8 7 5 26
67 99 47 57 59 98 29 106 -25 6 -25 10 -6 56 16 40 19 67 7 67 -4 0 -38 -50
-76 -112 -61 -100 -67 -115 -61 -147 l7 -36 -26 25 c-21 19 -25 30 -21 52 5
21 3 28 -9 28 -8 0 -18 -4 -21 -10 -3 -5 -11 -10 -16 -10 -6 0 -1 13 10 29 22
30 28 71 12 71 -20 0 -101 -106 -101 -133 0 -7 -12 -24 -26 -38 l-26 -24 7 33
c9 42 -11 43 -50 2 -40 -42 -42 -31 -4 23 27 39 30 48 19 62 -12 14 -16 13
-42 -11 -38 -37 -37 -11 2 40 35 46 38 60 10 51 -22 -7 -26 6 -10 35 7 13 7
21 -2 26 -7 5 -28 -11 -55 -42 -37 -42 -64 -55 -80 -40 -1 1 22 29 52 61 30
32 55 67 55 77 0 22 -8 23 -32 1 -29 -27 -32 -8 -4 34 30 44 32 53 10 53 -16
0 -43 -25 -102 -94 -25 -29 -36 -36 -42 -26 -6 9 12 36 56 84 61 68 77 96 53
96 -15 0 -73 -61 -96 -100 -16 -28 -43 -41 -43 -21 0 6 23 34 51 63 55 57 84
104 71 112 -9 5 -55 -40 -104 -101 l-26 -32 -37 102 c-39 106 -61 152 -162
327 -33 58 -81 144 -107 191 -58 110 -108 177 -261 347 -231 259 -463 471
-693 632 l-62 44 37 41 c21 22 58 61 83 88 24 26 39 47 33 47 -20 0 -145 -114
-157 -142 l-12 -27 -54 34 c-30 19 -59 36 -64 38 -5 1 1 22 13 46 29 56 20 64
-15 12 -14 -23 -28 -41 -30 -41 -2 0 -14 5 -28 11 l-25 12 29 42 c16 23 52 63
81 89 31 28 45 46 35 46 -18 0 -143 -125 -151 -152 -5 -14 -11 -15 -35 -6 -17
5 -30 12 -30 15 0 3 25 37 55 74 31 38 51 69 44 69 -13 0 -86 -71 -112 -109
l-16 -24 -73 42 c-184 107 -543 224 -773 251 -129 16 -173 27 -231 61 -51 29
-81 27 -46 -4 9 -8 134 -92 276 -187 142 -95 304 -212 360 -259 56 -48 135
-114 177 -148 101 -82 241 -214 234 -221 -3 -3 -37 -18 -77 -33 l-71 -28 -41
31 c-53 41 -106 90 -106 99 0 3 24 17 53 30 l52 24 -105 5 -106 5 -229 164
c-375 268 -736 531 -793 577 -28 23 -105 77 -170 120 -64 42 -162 108 -218
145 -131 87 -253 152 -334 178 -36 11 -92 34 -124 51 -32 16 -67 30 -77 30
-13 0 -19 8 -20 23 -1 18 -2 19 -6 3 -4 -17 -12 -18 -66 -12 -33 3 -63 8 -65
11 -3 3 2 13 11 23 10 10 17 24 17 32 0 19 -30 -8 -41 -37 -7 -18 -16 -23 -45
-23 l-36 0 36 50 36 50 -25 0 c-20 0 -33 -11 -57 -50 -19 -31 -38 -50 -49 -50
-25 0 -24 16 5 67 31 54 17 65 -32 26 -28 -23 -38 -39 -40 -65 -2 -29 -8 -37
-28 -41 -27 -5 -31 10 -14 60 8 20 25 37 55 52 25 12 45 24 45 27 0 12 -31 1
-72 -25z m228 -1136 c70 -88 160 -199 200 -246 l72 -87 -49 -51 c-79 -82 -164
-203 -193 -275 -33 -84 -76 -247 -77 -295 -1 -79 -9 -79 -82 -5 -130 134 -204
252 -251 402 -50 160 -29 352 56 499 41 72 173 227 188 221 5 -2 66 -75 136
-163z m2991 -872 c216 -218 393 -400 393 -405 0 -15 -168 14 -246 43 -64 24
-137 98 -429 432 -165 189 -215 252 -210 267 6 20 60 58 85 59 8 1 191 -177
407 -396z m-2445 240 l37 -38 -67 -103 c-53 -82 -68 -99 -70 -81 -6 40 42 259
57 259 4 0 23 -17 43 -37z m-1147 -423 c33 -101 104 -229 163 -292 57 -62 -85
-2 -146 61 -88 90 -124 251 -90 403 l11 53 22 -85 c12 -47 30 -110 40 -140z
m4197 -443 c212 -228 386 -437 363 -437 -8 0 -61 5 -117 11 l-103 11 -49 46
c-78 76 -247 280 -236 287 17 10 11 21 -12 22 -13 1 -65 45 -130 110 -122 121
-122 125 -23 141 120 19 100 32 307 -191z m1523 36 c-21 -46 -42 -83 -47 -83
-5 0 -8 4 -6 8 2 5 21 55 43 113 32 84 41 99 43 75 2 -18 -11 -61 -33 -113z
m5 -133 c0 -38 -69 -160 -91 -160 -16 0 -10 18 33 95 38 69 58 91 58 65z m-10
-183 c0 -14 -20 -37 -32 -37 -4 0 -2 11 4 25 12 27 28 34 28 12z m-57 -16 c-5
-19 -53 -71 -53 -58 0 11 44 77 52 77 3 0 4 -9 1 -19z m-730 -67 c-9 -15 -19
-21 -21 -15 -4 13 16 41 29 41 5 0 2 -12 -8 -26z m67 -124 c0 -5 -4 -10 -10
-10 -5 0 -10 5 -10 10 0 6 5 10 10 10 6 0 10 -4 10 -10z m606 -65 c-9 -14 -21
-25 -27 -25 -6 0 -1 14 11 31 26 36 40 31 16 -6z m-376 -30 c-7 -8 -17 -15
-23 -15 -5 0 -2 9 8 20 21 23 35 19 15 -5z m261 -22 c-17 -32 -69 -88 -75 -82
-7 7 63 99 76 99 5 0 5 -8 -1 -17z m-227 -37 c-17 -27 -34 -34 -34 -14 0 16
44 61 48 49 2 -5 -4 -21 -14 -35z m76 6 c0 -13 -61 -82 -73 -82 -8 0 -7 4 1
12 7 7 12 19 12 27 0 19 29 51 47 51 7 0 13 -3 13 -8z m110 -76 c0 -3 -7 -12
-16 -20 -23 -23 -40 -19 -19 4 16 18 35 26 35 16z m-154 -82 c-15 -14 -31 -22
-35 -19 -3 4 7 18 23 31 15 14 31 22 35 19 3 -4 -7 -18 -23 -31z m-2826 -165
l125 -78 77 -123 c72 -117 216 -394 207 -401 -19 -14 -270 -157 -276 -157 -8
0 -236 657 -267 772 -19 68 -20 81 -3 72 6 -4 68 -43 137 -85z m422 -257 c17
-16 248 -365 245 -369 -1 -1 -38 7 -82 18 -44 10 -92 19 -107 19 -24 0 -29 6
-38 43 -7 23 -29 101 -51 174 -21 72 -39 135 -39 138 0 12 54 -6 72 -23z
m-2222 -565 c0 -8 -43 13 -73 35 -15 12 -17 22 -11 68 l7 53 38 -74 c21 -41
38 -77 39 -82z m290 -207 c65 -17 71 -25 52 -62 -15 -31 -14 -34 10 -78 30
-54 81 -86 122 -76 27 7 28 9 23 54 -4 26 -9 60 -13 75 -6 27 -5 28 22 22 61
-14 172 -75 198 -110 53 -68 58 -93 39 -191 -17 -95 -38 -125 -111 -160 -46
-22 -157 -20 -219 4 -114 43 -176 113 -225 250 -22 60 -37 202 -22 201 5 0 28
-27 52 -61 24 -33 45 -58 48 -56 2 3 -16 42 -41 88 -42 79 -44 85 -28 102 9
10 23 16 32 14 9 -3 36 -10 61 -16z m3094 -60 c39 -14 33 -45 -16 -80 -67 -49
-105 -51 -132 -7 -8 13 -3 25 29 57 41 42 69 49 119 30z m-3560 -182 c11 -18
-3 -42 -37 -60 -18 -9 -19 -8 -12 28 4 22 9 42 12 47 7 11 25 4 37 -15z m876
-366 c0 -15 -18 -64 -39 -109 -45 -93 -71 -110 -135 -88 -41 15 -61 35 -75 80
-32 103 -24 114 95 126 49 6 94 12 99 14 6 2 20 4 33 4 18 1 22 -4 22 -27z
m1685 -345 c-10 -45 -18 -50 -45 -29 l-24 19 27 27 c33 33 51 26 42 -17z
m-1057 -54 c5 -10 12 -52 16 -93 9 -109 10 -109 -151 -117 -103 -5 -136 -3
-148 7 -29 24 -57 92 -62 151 l-6 58 109 4 c60 1 137 4 171 5 51 2 64 -1 71
-15z m21 -242 c11 -7 15 -34 15 -103 l1 -93 -70 3 c-38 2 -106 7 -149 12 -99
10 -108 20 -104 110 l3 65 90 6 c151 9 199 9 214 0z"/>
<path d="M5671 8391 c-7 -5 -10 -14 -6 -20 5 -9 10 -9 21 0 26 22 14 38 -15
20z"/>
<path d="M5544 8326 c-50 -23 -77 -46 -54 -46 10 0 118 55 129 65 12 13 -30 2
-75 -19z"/>
<path d="M5630 8300 c-13 -8 -12 -10 3 -10 9 0 17 5 17 10 0 12 -1 12 -20 0z"/>
<path d="M5569 8271 c-13 -11 -21 -22 -18 -26 4 -3 20 5 35 19 34 29 18 35
-17 7z"/>
<path d="M5673 8248 c-66 -37 -88 -58 -65 -58 9 0 159 84 170 94 3 3 -3 6 -14
6 -10 0 -52 -19 -91 -42z"/>
<path d="M5735 8219 c-53 -28 -72 -46 -59 -59 12 -12 118 56 109 70 -8 13 -4
13 -50 -11z"/>
<path d="M5974 8226 c-18 -14 -18 -15 -1 -22 13 -4 26 0 40 15 21 21 21 21 1
21 -11 0 -29 -6 -40 -14z"/>
<path d="M5382 8192 c-13 -10 -20 -21 -16 -24 7 -8 74 22 74 34 0 14 -34 8
-58 -10z"/>
<path d="M5480 8163 c-66 -44 -111 -86 -101 -96 6 -6 29 7 67 42 32 28 62 51
66 51 4 0 8 5 8 10 0 14 -11 12 -40 -7z"/>
<path d="M5794 8156 c-55 -25 -71 -41 -54 -51 5 -3 30 8 54 24 25 17 49 31 55
31 5 0 13 5 16 10 10 17 -17 11 -71 -14z"/>
<path d="M5510 8088 c-60 -45 -75 -61 -60 -66 9 -3 150 95 150 104 0 16 -44
-3 -90 -38z"/>
<path d="M4765 8095 c-15 -15 -24 -29 -21 -33 4 -3 19 6 33 21 35 34 25 45
-12 12z"/>
<path d="M5841 8104 c-24 -10 -31 -18 -24 -25 7 -7 22 -3 47 11 55 33 41 42
-23 14z"/>
<path d="M4824 8063 c-43 -45 -57 -72 -31 -57 24 15 107 89 107 97 0 21 -38 2
-76 -40z"/>
<path d="M5598 8043 c-38 -21 -68 -43 -68 -51 0 -17 0 -16 78 32 34 21 62 43
62 47 0 12 4 13 -72 -28z"/>
<path d="M4885 8020 c-21 -22 -36 -43 -32 -47 8 -7 87 65 87 79 0 17 -17 7
-55 -32z"/>
<path d="M4988 8013 c-54 -43 -74 -74 -45 -72 14 1 125 119 111 119 -5 -1 -35
-22 -66 -47z"/>
<path d="M5065 7979 c-40 -44 -53 -65 -46 -72 7 -7 14 -7 19 -1 96 113 112
134 99 134 -8 0 -40 -28 -72 -61z"/>
<path d="M5667 8001 c-53 -31 -73 -48 -66 -56 5 -4 100 55 124 76 19 19 -11 8
-58 -20z"/>
<path d="M5142 7950 c-59 -49 -74 -72 -52 -85 5 -3 16 8 24 24 9 16 37 47 63
70 69 59 40 51 -35 -9z"/>
<path d="M5705 7933 c-24 -16 -34 -28 -26 -31 7 -2 27 10 44 27 39 38 34 39
-18 4z"/>
<path d="M5420 7784 c-40 -43 -50 -58 -41 -67 9 -9 17 -6 31 13 93 120 98 147
10 54z"/>
<path d="M5601 7715 c-40 -41 -70 -79 -66 -85 3 -5 8 -10 10 -10 7 0 137 161
133 165 -3 3 -37 -29 -77 -70z"/>
<path d="M7390 7696 c0 -31 5 -56 10 -56 6 0 10 22 10 49 0 28 -4 53 -10 56
-6 4 -10 -15 -10 -49z"/>
<path d="M5677 7666 c-63 -60 -80 -86 -57 -86 5 0 27 19 49 43 111 121 116
145 8 43z"/>
<path d="M7450 7578 c0 -21 5 -38 10 -38 13 0 13 40 0 60 -7 11 -10 5 -10 -22z"/>
<path d="M5702 7578 c-12 -12 -17 -48 -6 -48 8 0 43 43 44 53 0 11 -25 8 -38
-5z"/>
<path d="M7376 7503 c-4 -31 -9 -67 -12 -80 -4 -13 -2 -23 4 -23 6 0 13 18 16
40 3 22 9 58 12 80 3 23 2 40 -4 40 -5 0 -12 -26 -16 -57z"/>
<path d="M7437 7463 c-4 -3 -7 -19 -7 -33 0 -15 -7 -46 -14 -68 -9 -24 -11
-44 -6 -47 13 -8 55 134 43 146 -5 5 -12 6 -16 2z"/>
<path d="M7549 7373 c-6 -33 4 -63 17 -51 3 4 2 24 -3 45 l-9 38 -5 -32z"/>
<path d="M7486 7324 c-3 -26 -6 -61 -5 -78 0 -27 1 -28 9 -10 14 35 23 134 13
134 -6 0 -13 -21 -17 -46z"/>
<path d="M7338 7278 c-6 -18 -26 -61 -44 -95 -33 -65 -31 -85 5 -35 20 29 71
138 71 153 0 22 -22 6 -32 -23z"/>
<path d="M7547 7290 c-3 -8 -11 -35 -17 -60 -6 -25 -13 -53 -16 -62 -3 -10 -1
-18 5 -18 14 0 44 103 38 132 -2 17 -5 19 -10 8z"/>
<path d="M7590 7258 c0 -20 5 -40 10 -43 13 -8 13 45 0 65 -7 11 -10 6 -10
-22z"/>
<path d="M7367 7145 c-47 -96 -63 -152 -31 -110 24 30 94 173 94 190 0 33 -18
11 -63 -80z"/>
<path d="M7576 7191 c-9 -13 -36 -149 -36 -177 0 -13 3 -24 8 -24 9 0 52 147
52 177 0 24 -15 39 -24 24z"/>
<path d="M7630 7171 c0 -17 5 -31 10 -31 6 0 10 11 10 24 0 14 -4 28 -10 31
-6 4 -10 -7 -10 -24z"/>
<path d="M7065 7159 c-4 -6 -5 -12 -2 -15 2 -3 7 2 10 11 7 17 1 20 -8 4z"/>
<path d="M7410 7043 c-55 -118 -53 -113 -43 -113 13 0 103 165 103 189 0 40
-15 21 -60 -76z"/>
<path d="M7617 7113 c-3 -4 -17 -45 -31 -91 -18 -58 -23 -89 -17 -100 8 -14
12 -11 25 19 30 72 50 159 39 170 -6 6 -13 7 -16 2z"/>
<path d="M7184 7058 c-15 -24 -27 -47 -26 -51 1 -4 -9 -23 -23 -41 -26 -34
-30 -46 -17 -46 10 0 106 169 100 176 -3 2 -18 -15 -34 -38z"/>
<path d="M7262 7068 c-5 -7 -13 -24 -17 -38 -4 -14 -25 -63 -46 -109 -43 -92
-44 -95 -29 -86 12 7 120 219 120 235 0 14 -15 13 -28 -2z"/>
<path d="M7638 6982 c-34 -109 -43 -165 -30 -188 9 -15 13 -10 26 36 12 43 46
217 46 236 0 2 -3 4 -7 4 -5 0 -20 -40 -35 -88z"/>
<path d="M6948 6960 c-54 -80 -63 -100 -39 -86 24 15 102 137 99 153 -3 12
-22 -9 -60 -67z"/>
<path d="M7459 6993 c-7 -21 -25 -65 -41 -98 -31 -67 -38 -103 -12 -70 29 37
93 176 87 191 -9 24 -21 16 -34 -23z"/>
<path d="M7690 6965 c0 -10 -11 -55 -24 -99 -14 -45 -30 -112 -37 -151 -6 -38
-17 -77 -25 -85 -41 -48 -93 -220 -66 -220 15 0 79 131 98 200 45 159 55 202
64 275 7 52 7 82 0 89 -7 7 -10 4 -10 -9z"/>
<path d="M7030 6962 c0 -5 -18 -39 -41 -76 -46 -77 -48 -108 -2 -50 39 50 74
115 67 126 -7 10 -24 11 -24 0z"/>
<path d="M7266 6888 c-50 -111 -58 -136 -54 -150 5 -14 108 183 108 207 0 35
-23 10 -54 -57z"/>
<path d="M7503 6918 c-51 -65 -107 -214 -73 -193 19 12 100 159 100 182 0 25
-12 30 -27 11z"/>
<path d="M7060 6868 c-13 -24 -37 -60 -53 -80 -31 -38 -31 -62 -1 -37 18 15
91 120 100 144 14 34 -24 12 -46 -27z"/>
<path d="M7697 6748 c-40 -152 -43 -181 -16 -186 19 -3 29 24 29 79 0 20 7 71
16 113 8 41 14 90 12 108 -2 24 -13 -6 -41 -114z"/>
<path d="M7302 6803 c-67 -111 -92 -184 -51 -147 21 18 89 146 103 192 14 43
-12 21 -52 -45z"/>
<path d="M7111 6802 c-11 -21 -38 -62 -60 -90 -43 -54 -47 -62 -31 -62 11 0
93 108 116 152 8 16 10 29 4 33 -5 3 -18 -12 -29 -33z"/>
<path d="M7531 6811 c-32 -45 -61 -113 -61 -145 0 -25 2 -27 17 -15 20 17 83
147 83 171 0 26 -16 22 -39 -11z"/>
<path d="M6546 6763 c-33 -35 -56 -66 -52 -70 7 -7 101 80 117 109 21 38 -10
20 -65 -39z"/>
<path d="M6460 6785 c-7 -8 -8 -15 -2 -15 5 0 15 7 22 15 7 8 8 15 2 15 -5 0
-15 -7 -22 -15z"/>
<path d="M6841 6720 c-56 -88 -57 -90 -38 -90 13 0 107 139 107 158 0 28 -21
7 -69 -68z"/>
<path d="M7305 6686 c-26 -57 -45 -110 -43 -117 5 -14 114 165 120 196 2 12
-3 21 -13 23 -12 2 -29 -25 -64 -102z"/>
<path d="M6583 6701 c-34 -38 -59 -71 -56 -75 9 -8 133 114 133 131 0 23 -14
13 -77 -56z"/>
<path d="M7135 6718 c-10 -18 -35 -59 -56 -90 -21 -32 -34 -60 -30 -63 10 -5
121 154 121 173 0 22 -15 13 -35 -20z"/>
<path d="M7540 6640 c-24 -49 -40 -93 -36 -97 10 -10 30 17 66 87 38 75 45
100 28 100 -8 0 -34 -40 -58 -90z"/>
<path d="M6871 6644 c-28 -42 -51 -80 -51 -85 0 -31 53 21 99 97 35 58 37 64
17 64 -8 0 -37 -34 -65 -76z"/>
<path d="M7356 6662 c-32 -53 -76 -145 -76 -159 0 -14 44 35 67 75 33 55 65
142 54 142 -5 0 -25 -26 -45 -58z"/>
<path d="M6615 6640 c-32 -33 -56 -62 -53 -65 7 -7 128 103 128 116 0 19 -18
7 -75 -51z"/>
<path d="M7156 6623 c-14 -27 -34 -61 -45 -78 -27 -39 -29 -65 -3 -42 21 19
78 113 87 145 12 40 -14 24 -39 -25z"/>
<path d="M6665 6600 c-26 -33 -52 -60 -57 -60 -4 0 -8 -4 -8 -10 0 -18 19 -11
55 21 49 43 80 88 68 100 -6 6 -27 -13 -58 -51z"/>
<path d="M6917 6577 c-62 -89 -71 -107 -55 -107 24 1 113 139 106 162 -2 6
-25 -19 -51 -55z"/>
<path d="M7386 6576 c-51 -90 -79 -159 -64 -154 13 5 90 141 107 191 18 49 -6
28 -43 -37z"/>
<path d="M7203 6597 c-19 -24 -93 -166 -93 -177 0 -7 5 -10 10 -8 16 5 111
186 101 192 -5 3 -13 0 -18 -7z"/>
<path d="M6709 6553 c-104 -114 -104 -113 -85 -113 21 0 136 114 136 135 0 24
-13 18 -51 -22z"/>
<path d="M6946 6501 c-54 -84 -62 -101 -48 -101 17 0 104 138 100 157 -3 13
-19 -5 -52 -56z"/>
<path d="M7425 6520 c-41 -64 -77 -147 -73 -168 2 -10 24 20 57 81 56 104 69
169 16 87z"/>
<path d="M6737 6493 c-18 -20 -44 -48 -59 -62 -27 -25 -37 -51 -19 -51 11 0
131 129 131 141 0 19 -23 7 -53 -28z"/>
<path d="M7215 6478 c-16 -29 -43 -77 -62 -106 -38 -61 -40 -66 -13 -52 22 12
131 190 124 202 -11 17 -22 7 -49 -44z"/>
<path d="M7633 6499 c-6 -8 -28 -48 -47 -89 -35 -73 -45 -123 -27 -134 13 -9
93 180 89 211 -2 22 -5 24 -15 12z"/>
<path d="M6981 6443 c-18 -27 -43 -63 -57 -82 -13 -19 -21 -37 -18 -40 10 -10
134 139 134 161 0 23 -30 3 -59 -39z"/>
<path d="M6741 6401 c-58 -66 -72 -91 -52 -91 11 0 141 139 141 151 0 25 -33
2 -89 -60z"/>
<path d="M7463 6448 c-30 -40 -102 -187 -93 -193 16 -10 120 160 120 196 0 13
-16 11 -27 -3z"/>
<path d="M6996 6363 c-31 -43 -56 -84 -56 -92 0 -21 25 3 74 73 56 79 58 84
47 90 -5 3 -34 -29 -65 -71z"/>
<path d="M7206 6340 c-35 -71 -46 -104 -39 -111 12 -12 113 157 113 191 0 44
-27 15 -74 -80z"/>
<path d="M6784 6358 c-61 -58 -79 -84 -65 -93 12 -7 70 43 111 95 47 59 17 58
-46 -2z"/>
<path d="M7078 6358 c-39 -33 -138 -181 -138 -208 0 -27 23 -2 89 95 76 114
91 146 49 113z"/>
<path d="M7447 6313 c-48 -79 -72 -131 -64 -139 4 -4 13 -1 21 5 23 19 94 134
101 164 12 48 -21 31 -58 -30z"/>
<path d="M6801 6290 c-24 -32 -50 -61 -58 -64 -7 -3 -13 -15 -13 -27 0 -19 2
-20 17 -8 32 27 113 130 113 145 0 25 -14 14 -59 -46z"/>
<path d="M7252 6302 c-32 -47 -81 -155 -82 -179 0 -6 4 -14 9 -17 11 -7 121
196 121 224 0 31 -12 24 -48 -28z"/>
<path d="M7097 6279 c-25 -14 -117 -148 -117 -171 0 -40 31 -12 99 89 44 65
52 101 18 82z"/>
<path d="M7296 6238 c-14 -29 -42 -83 -62 -121 -20 -37 -34 -71 -29 -75 19
-19 114 137 130 216 10 49 -10 39 -39 -20z"/>
<path d="M6815 6210 c-31 -39 -54 -74 -50 -78 7 -7 98 86 115 118 6 12 6 21 1
25 -6 3 -35 -26 -66 -65z"/>
<path d="M7462 6195 c-42 -86 -49 -105 -34 -105 14 0 92 140 92 165 0 43 -14
28 -58 -60z"/>
<path d="M7509 6177 c-83 -133 -93 -205 -11 -81 46 72 65 124 45 124 -5 0 -20
-19 -34 -43z"/>
<path d="M6831 6139 c-29 -34 -49 -64 -46 -67 6 -7 102 84 116 111 7 13 6 17
-5 17 -8 0 -37 -28 -65 -61z"/>
<path d="M7056 6114 c-36 -49 -66 -92 -66 -96 0 -5 9 -8 20 -8 37 0 140 164
117 187 -3 3 -35 -35 -71 -83z"/>
<path d="M7296 6081 c-31 -54 -58 -105 -61 -114 -8 -20 12 -32 29 -18 20 17
106 189 106 212 0 38 -20 17 -74 -80z"/>
<path d="M7092 6060 c-54 -72 -79 -120 -62 -120 18 0 130 151 130 176 0 27
-16 13 -68 -56z"/>
<path d="M7310 5965 c-35 -69 -61 -128 -58 -131 19 -18 138 185 138 236 0 42
-20 16 -80 -105z"/>
<path d="M7120 5988 c-63 -79 -79 -118 -50 -118 14 0 110 133 110 151 0 31
-17 22 -60 -33z"/>
<path d="M7364 5943 c-20 -38 -47 -87 -60 -110 -38 -67 -27 -103 14 -45 19 25
102 203 102 216 0 3 -4 6 -10 6 -5 0 -26 -30 -46 -67z"/>
<path d="M7158 5933 c-41 -47 -88 -116 -88 -129 0 -30 28 -12 73 47 43 57 60
99 39 99 -5 0 -16 -8 -24 -17z"/>
<path d="M7169 5843 c-52 -55 -69 -84 -69 -117 0 -28 1 -29 20 -11 38 34 92
122 88 144 -3 21 -6 19 -39 -16z"/>
<path d="M3794 4043 c-42 -46 -59 -73 -44 -73 14 0 120 97 113 104 -14 14 -36
4 -69 -31z"/>
<path d="M5025 3849 c-55 -32 -112 -64 -127 -70 -26 -11 -38 -29 -19 -29 7 0
237 134 250 146 2 2 2 6 0 8 -2 2 -49 -23 -104 -55z"/>
<path d="M4227 3885 c14 -39 98 -56 162 -34 43 15 39 25 -9 21 -22 -2 -61 3
-87 12 -59 20 -74 20 -66 1z"/>
<path d="M4815 3788 c6 -36 4 -39 -39 -67 -25 -15 -66 -34 -91 -41 -25 -7 -48
-17 -51 -21 -12 -19 42 -7 113 26 42 19 79 35 83 35 4 0 12 -10 18 -22 l11
-23 0 25 c0 14 -11 48 -25 75 l-24 50 5 -37z"/>
<path d="M4578 3695 l5 -45 -66 0 c-36 0 -68 -4 -72 -10 -4 -6 -15 -6 -31 0
-37 14 -161 13 -147 -1 7 -7 72 -13 165 -16 90 -3 159 -10 167 -17 12 -9 13
-5 7 24 -3 19 -9 52 -13 73 -8 53 -22 46 -15 -8z"/>
</g>
</svg>
