<?xml version="1.0" standalone="no"?>
<!DOCTYPE svg PUBLIC "-//W3C//DTD SVG 20010904//EN"
 "http://www.w3.org/TR/2001/REC-SVG-20010904/DTD/svg10.dtd">
<svg version="1.0" xmlns="http://www.w3.org/2000/svg"
 width="835.000000pt" height="774.000000pt" viewBox="0 0 835.000000 774.000000"
 preserveAspectRatio="xMidYMid meet">

<g transform="translate(0.000000,774.000000) scale(0.100000,-0.100000)"
fill="#000000" stroke="none">
<path d="M301 7714 c-25 -32 -76 -162 -103 -264 -29 -107 -36 -370 -14 -496
22 -130 69 -251 136 -353 68 -103 82 -143 125 -349 l33 -157 17 40 c14 32 16
58 12 133 l-5 92 36 -29 c74 -58 249 -247 280 -303 47 -81 72 -162 78 -248 7
-103 34 -273 45 -284 5 -6 9 93 9 241 0 142 4 254 9 257 5 4 44 -33 86 -81
130 -148 209 -337 234 -558 9 -80 41 -541 41 -594 0 -35 17 -23 25 17 4 20 8
163 10 317 2 273 3 282 31 383 15 56 32 102 36 102 9 0 368 -320 368 -328 0
-2 -38 -1 -85 3 -64 5 -85 4 -85 -5 0 -14 66 -80 120 -121 l35 -26 -75 -26
c-74 -27 -74 -27 -28 -23 48 3 68 -6 68 -34 0 -8 10 -20 23 -25 18 -8 21 -17
19 -47 -4 -42 0 -44 52 -23 33 14 37 14 55 -4 10 -10 38 -79 61 -153 51 -164
105 -277 205 -433 43 -66 79 -125 82 -131 3 -9 -8 -9 -42 -2 -40 9 -52 7 -92
-14 -68 -34 -83 -69 -83 -195 l0 -103 -655 0 c-428 0 -671 -4 -704 -11 -58
-12 -106 -58 -116 -112 -4 -18 -5 -181 -3 -363 3 -355 4 -359 60 -411 45 -42
90 -53 215 -53 89 0 124 -4 140 -15 27 -19 43 -90 43 -188 0 -85 -21 -135 -75
-180 -64 -52 -80 -109 -48 -170 9 -18 50 -72 91 -120 41 -49 71 -92 66 -96 -5
-4 -207 -180 -449 -392 -242 -211 -470 -413 -506 -449 -80 -79 -92 -116 -61
-197 47 -124 196 -331 314 -437 107 -96 178 -117 248 -75 31 19 348 271 603
480 99 81 100 81 131 -4 13 -33 27 -52 48 -63 16 -8 31 -14 33 -12 1 2 10 53
19 113 26 172 29 180 78 200 69 27 139 1 173 -65 8 -16 32 -148 52 -294 21
-145 41 -262 45 -260 5 3 8 133 8 289 0 158 4 295 10 309 9 25 9 25 52 10 84
-30 150 1 194 92 24 50 26 59 15 94 -6 22 -39 71 -71 109 -33 38 -60 78 -60
88 0 13 112 116 327 304 449 392 470 409 480 409 5 0 28 -34 52 -75 123 -218
307 -353 566 -419 33 -8 119 -25 190 -37 174 -30 482 -32 625 -5 106 21 97 20
165 11 45 -6 54 -4 90 21 22 16 111 65 198 109 l158 81 118 178 118 177 179
-158 c99 -87 283 -248 409 -357 227 -197 255 -223 255 -237 0 -4 -22 -34 -48
-66 -120 -145 -119 -137 -23 -314 43 -79 81 -157 85 -174 3 -16 22 -162 41
-324 19 -162 36 -296 39 -298 12 -13 16 217 6 435 -11 244 -9 322 9 322 12 0
31 -57 31 -92 0 -18 10 -39 27 -56 l28 -27 6 30 c4 17 7 58 8 92 1 80 14 111
47 119 37 9 134 -10 197 -39 54 -25 346 -268 404 -336 44 -52 80 -125 97 -201
8 -35 19 -67 24 -72 20 -20 54 4 74 50 l21 46 38 -42 c27 -31 50 -77 84 -168
63 -173 85 -274 95 -435 4 -76 11 -142 14 -148 17 -26 24 -5 30 92 8 112 31
238 70 372 29 100 37 112 80 123 20 5 42 23 61 50 17 24 63 82 103 130 96 114
167 218 207 306 76 164 81 156 -263 458 -153 134 -375 329 -494 433 -158 138
-218 196 -218 211 0 12 29 57 65 100 36 44 75 98 86 122 l21 43 -24 47 c-41
80 -135 135 -202 118 -13 -3 -65 -53 -116 -111 -51 -58 -95 -105 -99 -105 -16
0 -203 174 -218 203 -9 17 -17 52 -17 77 0 106 90 188 246 225 92 22 516 41
580 26 67 -15 98 -14 144 5 41 17 95 14 121 -7 8 -7 25 -34 39 -61 26 -51 57
-68 92 -49 15 8 21 24 24 71 2 34 11 67 19 75 8 7 63 21 122 29 l108 16 33
-35 c18 -19 40 -35 49 -35 22 0 47 28 47 52 0 40 45 100 112 149 134 100 227
222 323 422 110 228 101 273 -57 292 -31 4 -485 10 -1007 14 -864 5 -952 7
-967 22 -9 10 -32 79 -51 155 -42 165 -45 232 -25 674 22 513 43 698 84 733
36 30 72 22 102 -23 14 -22 30 -40 34 -40 9 1 183 261 208 310 10 19 25 59 34
88 l17 54 16 -59 c27 -93 36 -194 38 -383 0 -96 4 -200 8 -230 l7 -55 12 55
c6 30 27 172 47 315 57 414 73 512 94 553 11 22 62 76 118 124 54 47 172 162
263 254 147 151 171 179 212 259 141 274 155 563 43 888 -45 131 -63 161 -101
165 -34 3 -98 -52 -1178 -996 l-539 -471 -49 87 c-317 555 -731 892 -1267
1026 -178 45 -300 59 -526 59 -227 0 -348 -14 -530 -59 -475 -120 -866 -414
-1173 -882 -34 -52 -74 -116 -89 -143 -16 -30 -32 -48 -39 -45 -7 3 -368 314
-801 692 -433 378 -803 700 -821 716 -41 35 -65 35 -91 2z m195 -259 c16 -40
-2 -95 -48 -142 l-33 -34 -27 31 c-50 55 -32 136 36 166 42 18 57 14 72 -21z
m6861 17 c56 -9 102 -21 103 -25 1 -8 -232 -299 -235 -294 -6 8 -85 278 -85
290 0 24 40 47 80 46 19 0 81 -8 137 -17z m-6977 -202 c26 -26 25 -50 -5 -135
-41 -118 -53 -94 -39 78 4 43 11 77 15 77 5 0 18 -9 29 -20z m380 -77 c-1 -5
-19 -28 -40 -52 -39 -43 -40 -43 -40 -17 0 29 40 76 65 76 8 0 15 -3 15 -7z
m93 -65 c-54 -59 -88 -161 -104 -310 -7 -59 -16 -105 -20 -102 -16 10 -21 96
-9 159 19 100 110 275 143 275 6 0 1 -10 -10 -22z m280 -134 c48 -42 87 -78
87 -79 0 -1 -20 -32 -45 -69 -50 -75 -84 -173 -115 -331 -11 -60 -22 -110 -23
-111 -1 -1 -55 43 -120 99 -98 84 -117 105 -117 129 0 16 16 78 36 139 77 239
113 298 180 299 25 0 49 -16 117 -76z m-623 -116 c-1 -177 -1 -182 -18 -153
-12 23 -16 56 -16 140 0 95 15 195 29 195 3 0 5 -82 5 -182z m6920 -79 c0 -6
-353 -158 -358 -154 -1 1 14 29 33 61 37 61 74 166 95 269 l12 60 109 -115
c60 -63 109 -118 109 -121z m-5890 -165 c96 -86 223 -196 281 -245 174 -144
180 -159 120 -335 -22 -65 -50 -162 -62 -214 -12 -52 -24 -100 -28 -107 -4 -7
-29 8 -71 44 -541 463 -549 470 -571 518 -39 84 -17 268 42 365 36 59 93 130
104 130 5 0 89 -70 185 -156z m-524 -285 c7 -15 9 -51 5 -98 l-6 -74 -78 83
c-85 88 -123 155 -134 236 l-6 48 104 -85 c57 -47 109 -97 115 -110z m5865
-13 c-25 -102 -45 -164 -57 -176 -15 -15 -46 -21 -159 -30 -77 -6 -165 -13
-195 -17 l-55 -5 20 20 c47 48 471 380 477 374 4 -4 -10 -79 -31 -166z m-5586
-196 c4 -6 -10 -10 -34 -10 -44 0 -46 1 -56 49 l-7 33 45 -31 c25 -17 49 -36
52 -41z m37 -57 c17 -19 151 -414 143 -421 -2 -3 -26 12 -53 33 -76 57 -140
150 -171 246 -15 47 -30 142 -24 152 9 15 90 7 105 -10z m236 -170 c124 -107
272 -254 272 -270 0 -11 -115 -23 -215 -23 -97 0 -102 8 -174 225 -34 101 -61
189 -61 196 0 18 50 -18 178 -128z m4752 95 c0 -7 -16 -89 -34 -182 -25 -121
-40 -174 -54 -188 -18 -19 -29 -19 -191 -12 -103 4 -170 11 -168 17 4 12 429
377 440 377 4 0 7 -6 7 -12z m-4551 -437 c22 -6 22 -7 6 -21 -26 -22 -82 -18
-107 8 l-22 22 49 -1 c28 -1 61 -4 74 -8z m69 -197 l-3 -35 -70 58 -69 58 69
16 70 16 3 -39 c2 -21 2 -54 0 -74z m4101 -218 c40 -67 77 -171 90 -256 11
-69 35 -769 30 -834 l-4 -38 -85 123 c-47 68 -86 127 -88 131 -2 4 10 27 26
50 74 110 68 220 -17 314 -23 24 -45 61 -52 86 -16 58 -6 193 26 347 14 68 25
125 25 127 0 17 21 -5 49 -50z m-3878 -232 c14 -124 20 -249 11 -234 -15 25
-74 299 -67 310 5 8 14 7 28 -3 17 -11 24 -28 28 -73z m2533 70 c9 -8 16 -18
16 -20 0 -17 21 -203 25 -221 9 -38 -20 -55 -79 -48 -154 19 -298 52 -403 92
-26 10 -12 -16 36 -69 26 -29 55 -66 63 -83 21 -41 44 -150 59 -275 6 -58 16
-109 20 -114 5 -6 9 70 9 172 0 175 1 182 20 182 39 0 285 -52 299 -63 11 -9
13 -82 9 -412 -4 -437 -3 -432 -63 -471 -40 -26 -355 -135 -435 -150 -110 -21
-423 -29 -555 -15 -361 39 -665 158 -917 360 -93 75 -123 131 -121 231 2 66
23 241 39 321 l5 26 62 -33 c35 -18 90 -40 122 -49 82 -21 270 -38 292 -26 10
5 51 19 91 32 231 70 414 304 429 549 3 47 11 88 17 92 6 4 221 8 478 8 411 0
468 -2 482 -16z m1085 7 c14 -9 12 -31 -16 -170 -15 -78 -50 -158 -78 -181
-31 -25 -63 -95 -70 -150 -9 -76 -51 -158 -140 -273 -65 -83 -79 -96 -91 -86
-57 47 -81 199 -67 408 l10 134 55 51 c116 108 115 131 -3 81 -104 -45 -191
-71 -312 -94 l-97 -18 -11 39 c-13 49 0 117 36 187 44 87 12 81 413 81 196 0
363 -4 371 -9z m-3329 -45 c0 -52 36 -172 90 -301 28 -66 41 -116 50 -188 20
-167 15 -349 -11 -387 -8 -12 -20 -4 -62 42 -85 92 -165 260 -219 461 -17 65
-22 111 -22 222 -1 77 2 152 7 168 7 27 9 27 87 27 l80 0 0 -44z m3449 -326
c47 -24 77 -60 93 -111 23 -79 -33 -174 -120 -200 -146 -43 -264 154 -164 273
49 58 123 73 191 38z m-740 -65 c36 -31 47 -80 55 -245 10 -222 -26 -336 -146
-464 l-63 -67 -38 13 c-21 6 -43 21 -49 32 -6 11 -13 84 -15 161 -6 177 34
512 65 554 36 48 142 57 191 16z m533 -276 c18 -29 47 -119 83 -259 73 -282
88 -324 135 -395 45 -68 44 -70 -47 -80 -59 -7 -63 -6 -91 21 -32 32 -45 90
-112 491 -31 185 -35 229 -24 258 10 24 26 13 56 -36z m401 -242 c146 -245
153 -267 96 -332 -43 -48 -83 -67 -143 -69 -67 -1 -98 8 -115 36 -8 13 -53
145 -101 293 l-86 270 45 6 c25 3 75 6 111 7 l65 1 128 -212z m-493 196 c0
-12 91 -668 96 -696 5 -24 1 -29 -31 -43 -46 -19 -88 -11 -114 22 -25 32 -34
202 -24 464 8 181 10 197 31 228 21 29 42 42 42 25z m-3273 -98 c12 -8 26 -30
31 -48 6 -19 13 -308 17 -698 l6 -667 -24 -28 c-21 -24 -32 -28 -75 -28 -28 0
-57 6 -65 12 -10 8 -17 41 -21 95 -9 119 -12 1308 -3 1333 14 41 93 58 134 29z
m3167 -52 c-2 -21 -6 -73 -10 -115 -3 -49 -11 -81 -20 -89 -9 -7 -59 -14 -120
-17 -84 -4 -104 -2 -104 9 0 13 237 247 252 249 3 0 4 -17 2 -37z m-2881 -155
l52 -47 -122 -1 -123 0 0 111 0 111 71 -63 c38 -35 93 -85 122 -111z m2227
-71 c0 -110 -13 -154 -38 -124 -10 11 -9 36 3 116 8 55 15 103 15 106 0 3 5 5
10 5 6 0 10 -41 10 -103z m-2142 -53 c28 -6 79 -75 93 -127 12 -45 -1 -174
-27 -264 -22 -78 -34 -83 -196 -83 l-138 0 0 240 0 239 63 4 c64 3 165 -1 205
-9z m-1678 -48 c0 -83 -11 -102 -77 -132 -115 -50 -174 -145 -158 -252 14 -93
66 -152 171 -191 l49 -19 3 -75 3 -74 -38 -7 c-52 -8 -129 -7 -183 3 -77 15
-77 15 -84 318 -3 147 -3 306 2 353 7 81 8 85 41 107 31 21 46 23 152 23 l119
0 0 -54z m473 36 c14 -15 37 -168 37 -243 0 -31 -19 -22 -87 41 -35 33 -71 60
-80 60 -9 0 -50 -31 -92 -68 -42 -37 -93 -81 -113 -96 l-38 -28 0 176 0 176
178 0 c158 0 181 -2 195 -18z m95 -105 c5 -136 -14 -118 -23 23 -6 88 -5 103
6 92 10 -9 15 -46 17 -115z m532 -43 c0 -192 12 -185 -111 -67 -42 40 -84 73
-93 73 -17 0 -71 -46 -203 -174 l-73 -70 0 202 0 202 240 0 240 0 0 -166z
m3337 144 c4 -7 13 -76 19 -152 10 -133 11 -140 38 -162 15 -14 40 -24 56 -24
16 0 145 32 286 70 141 39 258 69 260 67 2 -1 -2 -50 -7 -107 -8 -81 -15 -110
-30 -125 -19 -19 -36 -20 -439 -24 -231 -2 -430 -1 -443 3 -24 6 -24 7 -31
183 -6 187 0 248 30 270 25 18 249 18 261 1z m1941 -215 l2 -223 -541 0 -541
0 6 58 c3 31 8 107 11 167 3 61 8 136 11 168 l6 57 521 -2 522 -3 3 -222z
m551 165 c-70 -181 -230 -326 -409 -372 -30 -7 -58 -12 -62 -9 -9 5 -11 394
-2 417 5 14 37 16 250 16 l244 0 -21 -52z m223 -34 l71 -36 -64 -37 c-79 -46
-129 -95 -129 -126 0 -17 10 -27 40 -39 38 -15 40 -18 40 -58 0 -42 -4 -47
-138 -180 -160 -158 -194 -179 -314 -186 -96 -6 -145 3 -158 29 -11 20 -44
189 -38 193 2 2 48 22 103 46 222 95 323 187 420 385 l47 97 25 -26 c13 -14
56 -42 95 -62z m-5161 -42 c57 -27 142 -63 189 -82 47 -18 96 -43 109 -55 l23
-23 -17 -168 c-9 -93 -18 -170 -19 -172 -8 -7 -255 86 -359 136 -84 40 -119
62 -123 77 -6 25 77 335 90 335 2 0 50 -22 107 -48z m2017 -64 c60 -216 60
-217 31 -242 -33 -28 -336 -159 -353 -153 -22 9 -38 323 -18 353 8 13 280 153
298 153 6 1 25 -50 42 -111z m-2922 -160 c32 -63 12 -102 -101 -196 -47 -40
-90 -72 -94 -72 -4 0 -65 47 -135 105 l-126 106 87 82 c49 46 108 101 133 124
l44 41 89 -81 c49 -45 95 -94 103 -109z m-668 117 c109 -101 124 -161 63 -257
-35 -55 -134 -134 -153 -122 -49 30 -228 190 -228 205 0 16 224 239 240 239 4
0 39 -29 78 -65z m-418 -145 l0 -170 -23 0 c-40 0 -109 43 -129 80 -22 43 -23
121 -2 166 17 36 68 73 118 84 17 5 32 8 34 9 1 1 2 -75 2 -169z m5169 23 c-1
-77 -2 -82 -10 -43 -11 64 -11 130 1 130 6 0 9 -35 9 -87z m-2509 31 c118 -19
220 -40 227 -46 9 -8 13 -48 13 -147 0 -191 4 -186 -159 -178 -172 9 -378 39
-397 59 -14 14 -14 31 1 174 9 87 21 165 28 172 7 9 21 12 41 7 17 -3 128 -22
246 -41z m754 0 c30 -29 47 -145 35 -237 -14 -109 -18 -111 -216 -126 -220
-17 -263 -17 -274 -1 -14 21 -6 269 9 297 16 28 54 39 216 58 72 9 132 18 135
20 11 12 81 4 95 -11z m169 -92 c14 -68 19 -202 9 -202 -12 0 -16 19 -32 135
-13 91 -12 95 4 95 7 0 16 -12 19 -28z m-2808 -146 c114 -97 121 -97 217 -10
116 104 108 109 108 -65 l0 -150 -47 -7 c-26 -4 -81 -2 -123 5 -183 28 -310
145 -310 288 0 69 2 68 155 -61z m-572 15 c52 -44 105 -84 117 -91 25 -13 36
-7 120 64 53 46 55 46 63 24 25 -67 -17 -169 -87 -212 -45 -28 -56 -30 -164
-33 -68 -3 -123 0 -132 6 -11 8 -17 48 -25 161 -5 84 -8 154 -6 156 10 10 24
0 114 -75z m3887 -99 l0 -169 -97 -46 c-137 -66 -152 -67 -200 -24 -79 72
-125 200 -87 244 15 17 348 161 377 163 4 0 7 -76 7 -168z m-2075 73 c126 -47
235 -91 243 -99 12 -12 12 -37 -2 -176 -8 -90 -18 -165 -20 -168 -5 -4 -263
96 -383 149 -77 34 -93 61 -93 157 0 90 11 222 19 222 3 0 109 -38 236 -85z
m3034 56 c12 -8 12 -21 2 -88 -7 -43 -19 -92 -26 -110 -26 -61 -23 -61 -446
-69 -466 -8 -429 -20 -429 134 0 83 3 102 18 115 16 14 53 17 263 20 134 1
325 3 424 5 99 1 186 -2 194 -7z m1311 -4 c0 -26 -32 -122 -50 -152 -34 -55
-80 -72 -235 -85 -196 -17 -458 -16 -576 4 -149 24 -144 20 -168 124 -12 49
-21 97 -21 106 0 15 47 16 525 16 428 0 525 -2 525 -13z m-4680 -12 c0 -8 -5
-61 -11 -117 -9 -90 -14 -106 -35 -126 -26 -23 -37 -23 -181 -6 l-43 5 0 118
c0 78 4 121 12 129 8 8 53 12 135 12 101 0 123 -3 123 -15z m3474 -167 c-7
-67 -7 -68 -42 -78 -20 -5 -38 -8 -40 -5 -3 2 13 51 34 109 37 99 39 103 46
73 4 -18 5 -62 2 -99z m-2629 -13 c61 -8 163 -21 229 -30 65 -8 125 -20 132
-26 11 -9 14 -48 14 -171 0 -139 -2 -159 -17 -165 -24 -9 -234 12 -408 42
-175 30 -185 36 -178 112 22 253 27 268 88 258 16 -2 80 -11 140 -20z m1099
-102 c10 -71 20 -139 23 -151 5 -19 2 -23 -13 -20 -16 3 -21 21 -36 133 -21
164 -21 165 -5 165 10 0 19 -36 31 -127z m-209 97 c33 -12 75 -99 75 -155 0
-84 -78 -179 -168 -205 -44 -13 -329 -32 -354 -24 -16 5 -18 22 -18 163 0 121
3 161 13 170 8 6 103 22 213 35 109 13 202 24 206 25 4 0 18 -3 33 -9z m1347
-138 c42 -22 113 -78 179 -144 72 -71 79 -102 72 -357 -3 -116 -9 -211 -13
-211 -13 0 -825 701 -828 716 -3 12 37 14 275 14 251 0 282 -2 315 -18z m225
2 c19 -5 20 -9 11 -35 -5 -16 -13 -29 -17 -29 -4 0 -22 16 -41 35 l-34 35 30
0 c16 0 39 -3 51 -6z m-4487 -34 c36 -39 53 -104 48 -188 -3 -69 -4 -71 -76
-163 -39 -52 -81 -105 -92 -117 l-20 -24 -47 42 c-70 62 -140 147 -171 210
-23 47 -27 67 -27 145 0 50 3 98 7 108 7 15 25 17 179 17 l171 0 28 -30z m479
23 c0 -5 -66 -65 -147 -136 -97 -85 -148 -123 -153 -115 -3 7 -12 58 -18 113
-7 55 -15 110 -18 123 l-5 22 171 0 c94 0 171 -3 170 -7z m3100 -104 c-24
-201 -106 -425 -189 -519 l-31 -35 8 200 c4 110 7 234 8 275 l0 75 105 51 c58
29 106 50 108 49 1 -1 -2 -45 -9 -96z m-2237 62 c35 -16 69 -35 75 -43 6 -7
13 -58 17 -113 6 -107 38 -259 80 -390 38 -119 35 -130 -23 -68 -81 86 -168
285 -205 465 -14 69 -22 178 -12 178 2 0 32 -13 68 -29z m3324 12 c-37 -99
-52 -133 -61 -130 -5 2 -11 30 -13 63 -3 64 10 84 56 84 19 0 23 -4 18 -17z
m-958 -33 c40 -37 41 -50 3 -50 -49 0 -61 9 -61 46 0 42 14 43 58 4z m-648
-31 c0 -22 -5 -49 -10 -60 -14 -24 -43 -26 -36 -1 3 9 8 35 12 57 8 48 12 57
25 50 5 -4 9 -24 9 -46z m-1876 -51 c6 -27 5 -28 -34 -28 -48 0 -53 18 -13 50
29 23 37 19 47 -22z m2580 6 c17 -7 23 -22 67 -192 17 -67 33 -121 35 -119 2
2 -9 64 -25 138 -17 74 -27 137 -23 141 4 4 124 -92 266 -213 192 -165 255
-224 246 -233 -15 -15 -377 -33 -398 -19 -9 5 -20 24 -23 42 -10 46 -19 50
-19 7 l0 -36 -127 106 c-71 59 -134 114 -141 123 -19 22 -10 125 16 183 17 38
27 48 63 61 24 8 45 16 46 16 1 1 8 -2 17 -5z m-1921 -84 c253 -56 306 -61
650 -60 l318 0 24 -24 c26 -27 28 -38 50 -319 8 -104 12 -206 9 -228 -6 -34
-4 -38 10 -33 12 5 16 0 16 -19 0 -36 -15 -44 -130 -72 -223 -54 -459 -56
-703 -5 -205 42 -267 72 -325 158 -71 105 -100 235 -104 465 -3 122 0 149 12
157 21 13 19 14 173 -20z m1379 0 c24 -33 35 -107 47 -324 12 -209 10 -218
-72 -270 -60 -38 -237 -129 -243 -124 -1 2 -10 100 -19 218 -8 118 -20 261
-26 318 -14 131 -10 148 39 161 20 6 66 19 102 30 89 27 147 24 172 -9z
m-2179 -42 c-26 -250 -41 -342 -59 -355 -27 -19 -414 -19 -414 1 0 11 102 102
425 380 46 39 55 34 48 -26z m551 -75 c-15 -150 -12 -133 -23 -133 -16 0 -22
81 -10 143 9 51 33 117 42 117 2 0 -3 -57 -9 -127z m1713 104 c26 -56 36 -144
29 -261 -6 -118 -9 -136 -23 -122 -6 6 -51 340 -52 389 -1 25 34 21 46 -6z
m1322 -65 c23 -22 30 -40 35 -92 6 -57 3 -80 -30 -190 -20 -69 -39 -135 -41
-147 -3 -13 -12 -23 -19 -23 -12 0 -14 42 -14 240 0 236 0 240 21 240 11 0 33
-13 48 -28z m714 -107 c67 -64 64 -91 -17 -190 -104 -127 -540 -616 -558 -626
-28 -15 -64 21 -84 85 -23 72 -8 119 59 193 29 32 151 166 271 298 202 222
263 285 276 285 3 0 27 -20 53 -45z m-5636 -46 c93 -96 104 -122 101 -239 -2
-52 1 -117 6 -145 l9 -49 -105 119 c-234 269 -241 283 -168 349 59 53 78 49
157 -35z m5205 -81 c35 -28 65 -53 67 -54 2 -2 -38 -51 -89 -108 -52 -58 -95
-104 -97 -103 -3 4 32 251 42 295 3 12 7 22 10 22 2 0 32 -23 67 -52z m-182
-178 c-6 -22 -25 -55 -41 -73 -35 -37 -35 -40 13 113 l33 105 3 -52 c2 -29 -2
-70 -8 -93z m-4840 11 c-1 -20 -7 -58 -14 -85 l-13 -49 -11 33 c-13 36 -16
138 -5 166 6 15 8 15 25 -6 10 -13 18 -38 18 -59z m4468 46 c11 -12 45 -171
57 -263 8 -59 -3 -73 -62 -81 -37 -5 -43 -1 -211 147 -159 140 -192 173 -180
185 4 5 237 21 329 24 35 0 61 -4 67 -12z m142 -86 c5 -10 11 -55 12 -99 3
-73 1 -83 -21 -106 -14 -14 -28 -26 -31 -26 -10 0 -71 290 -64 301 7 11 90
-45 104 -70z m-3994 52 c-2 -10 -23 -108 -46 -218 -22 -110 -44 -208 -48 -217
-6 -13 -26 5 -99 87 -51 57 -94 108 -95 115 -4 13 261 249 280 249 8 1 11 -6
8 -16z m1128 -44 c20 -34 35 -64 32 -66 -9 -9 -67 29 -75 49 -6 17 -3 78 4 78
1 0 19 -28 39 -61z m3741 -195 c69 -59 125 -110 125 -113 0 -7 -322 -143 -326
-138 -3 3 68 357 73 357 2 0 59 -48 128 -106z m-158 79 c-3 -10 -22 -88 -41
-173 -20 -85 -40 -161 -45 -168 -10 -16 -362 -163 -373 -155 -10 6 -10 6 240
286 112 125 208 227 214 227 5 0 7 -8 5 -17z m-5092 -210 c7 -87 11 -159 10
-161 -2 -2 -15 9 -30 25 -90 95 -120 246 -63 318 l21 27 25 -26 c24 -23 26
-35 37 -183z m161 -38 c182 -207 274 -324 280 -354 6 -27 1 -36 -34 -71 -62
-62 -78 -58 -187 58 -51 53 -109 117 -129 140 l-36 44 0 132 c0 124 4 150 21
144 3 -2 42 -43 85 -93z m-392 -17 c-2 -18 -11 -77 -19 -131 -7 -54 -20 -105
-27 -114 -11 -13 -30 -15 -128 -9 -63 3 -118 10 -123 15 -6 6 -5 43 2 93 18
123 28 153 53 166 13 6 73 11 135 11 l112 1 -5 -32z m5719 -20 l47 -43 -234
-283 c-129 -156 -237 -287 -240 -290 -4 -3 -22 10 -41 28 -53 52 -48 72 47
192 132 167 359 438 367 438 3 0 28 -19 54 -42z m-943 -80 c30 -54 31 -58 12
-58 -31 0 -62 46 -62 93 0 48 6 44 50 -35z m773 60 c-117 -151 -336 -418 -343
-418 -6 0 -8 10 -5 23 10 44 65 301 65 304 0 11 247 101 279 102 9 1 10 -3 4
-11z m-327 -115 c-3 -10 -23 -91 -45 -181 -21 -90 -41 -166 -45 -169 -6 -6
-266 214 -266 225 0 6 331 138 353 141 5 0 6 -7 3 -16z m652 -86 c34 -56 71
-116 82 -133 l20 -30 -106 -38 c-58 -20 -108 -35 -112 -32 -6 7 40 336 48 336
3 0 33 -47 68 -103z m-121 61 c-3 -18 -13 -91 -23 -161 -11 -81 -23 -136 -33
-148 -9 -10 -79 -41 -156 -69 -144 -51 -169 -57 -163 -40 6 17 363 449 372
449 4 1 6 -14 3 -31z m-6167 -171 c0 -45 -40 -232 -53 -244 -10 -10 -35 -11
-116 -3 -57 5 -105 11 -106 12 -6 8 43 229 54 242 11 13 35 16 117 16 101 0
104 -1 104 -23z m-522 -205 c63 -68 112 -129 110 -138 -2 -8 -17 -24 -34 -34
l-30 -20 -118 132 -117 131 28 29 c15 15 32 27 37 25 6 -2 62 -58 124 -125z
m7139 4 c-3 -34 -16 -112 -28 -175 -18 -94 -27 -119 -50 -145 l-28 -31 -1 36
c0 61 40 360 52 383 24 46 31 49 46 20 10 -20 13 -45 9 -88z m-212 37 c-37
-56 -277 -343 -287 -343 -7 0 -8 12 -4 33 4 17 11 77 16 131 9 108 21 133 80
174 18 12 51 27 74 32 23 6 61 16 86 23 42 12 45 12 48 -5 2 -11 -4 -31 -13
-45z m304 -13 c39 -39 48 -85 27 -135 -19 -45 -63 -105 -77 -105 -5 0 -9 56
-9 135 0 151 5 159 59 105z m-7202 -251 c126 -149 229 -275 231 -279 4 -11
-89 -77 -119 -85 -20 -5 -34 0 -59 22 -61 51 -283 343 -354 466 -34 58 -30 84
21 120 21 15 41 27 45 27 4 0 110 -122 235 -271z m6597 189 c-3 -18 -15 -100
-27 -183 -16 -106 -26 -150 -35 -150 -12 0 -304 236 -299 241 5 5 342 122 354
123 8 1 10 -10 7 -31z m306 -92 c0 -68 -36 -209 -71 -277 -23 -46 -71 -79
-115 -79 -39 0 -84 34 -84 63 0 23 245 357 261 357 5 0 9 -29 9 -64z m-6776
-50 c107 -137 186 -248 186 -260 0 -8 -13 -24 -29 -35 l-28 -20 -20 22 c-11
12 -59 73 -108 136 l-88 114 34 28 c40 33 39 33 53 15z"/>
<path d="M3800 4251 c-125 -41 -194 -153 -169 -273 39 -181 267 -247 399 -116
105 105 82 289 -45 363 -48 29 -139 41 -185 26z"/>
<path d="M6390 5301 c-13 -26 -13 -33 4 -56 13 -18 14 -18 26 4 12 24 6 71
-10 71 -5 0 -14 -9 -20 -19z"/>
<path d="M6422 4382 l-23 -18 21 -22 c25 -26 32 -27 72 -6 l30 16 -23 24 c-27
28 -46 30 -77 6z"/>
<path d="M7436 4301 c-22 -25 -14 -54 20 -69 40 -19 62 -14 101 21 l36 34 -48
16 c-63 22 -88 21 -109 -2z"/>
<path d="M6472 4298 c-5 -7 -12 -22 -14 -33 -2 -17 3 -20 40 -23 47 -3 53 8
26 46 -17 25 -36 28 -52 10z"/>
<path d="M7802 4233 c-7 -2 -17 -13 -22 -24 -8 -15 -6 -21 15 -35 23 -15 27
-15 61 7 l36 22 -23 18 c-24 19 -43 22 -67 12z"/>
<path d="M7647 2623 c-15 -15 -15 -18 -1 -35 15 -16 19 -16 47 -1 l31 16 -23
18 c-28 23 -32 23 -54 2z"/>
<path d="M3087 1433 c-8 -40 3 -45 41 -21 35 22 33 33 -9 43 -23 6 -27 3 -32
-22z"/>
<path d="M2726 1244 c-30 -30 -34 -75 -10 -95 23 -19 80 -16 104 6 33 30 23
61 -30 98 -32 22 -32 22 -64 -9z"/>
<path d="M2666 794 c-8 -25 -45 -44 -86 -44 -37 0 -60 -32 -60 -85 0 -58 -10
-68 -80 -76 -40 -5 -69 -14 -80 -26 -17 -17 -38 -123 -24 -123 19 0 116 85
228 201 111 115 127 135 118 153 l-9 21 -7 -21z"/>
</g>
</svg>
